<svg xmlns="http://www.w3.org/2000/svg" width="1920" height="441" viewBox="0 0 1920 441"><defs><linearGradient id="yic3a" x1="1274" x2="646" y1="78" y2="441" gradientUnits="userSpaceOnUse"><stop offset="0" stop-color="#bb4571"/><stop offset="1" stop-color="#f56ea1"/></linearGradient></defs><g><g><g><path fill="url(#yic3a)" d="M0 178.737C42.925 173.11 773.964 78 1144 78c386.648 0 776 40 776 40v323H0z"/></g><g opacity=".5"><path fill="#f477a6" d="M582 377c98-36 406-72 492-88s222-74 284-104 284-50 284-50 72 4 64 4-168 54-196 74-84 84-116 130c-21.89 31.468-83.084 74.162-119.568 98H450.388c24.02-15.363 68.768-40.915 131.612-64z"/></g><g><path fill="#a93e66" d="M1602 69l153-15 57-54-147 9z"/></g><g><path fill="#a93e66" d="M1860.456 125.443l1.11-71.018-54.837-51.272-134.576 8.656-6.58 84.706 59.686 45.325z"/></g><g><path fill="#b6436e" d="M1623.228 132.962l-.794-73.856 49.542-47.526 54.045 57.837-.322 71.92z"/></g><g opacity=".5"><path fill="#ca5883" d="M1638.39 134.592l-.521-56.286 68.13 3.694-.338 57.148z"/></g><g><path fill="#c84a79" d="M1725 77l153-15-66-62-147 9z"/></g></g></g></svg>