<svg xmlns="http://www.w3.org/2000/svg" width="1920" height="1080" viewBox="0 0 1920 1080"><defs><linearGradient id="fsvpa" x1="960" x2="960" y1="1080" y2="0" gradientUnits="userSpaceOnUse"><stop offset="0" stop-color="#fff"/><stop offset=".34" stop-color="#fff"/><stop offset=".75" stop-color="#feeef2"/><stop offset="1" stop-color="#feeef2"/></linearGradient></defs><g><g><g><path fill="url(#fsvpa)" d="M0 0h1920v1080H0V0z"/></g><g><g><path fill="#fff" d="M1374.939 183c4.498 0 8.868.55 13.045 1.589 1.464-36.602 31.577-65.826 68.51-65.826 33.76 0 61.822 24.42 67.512 56.573 7.876-3.74 16.685-5.83 25.982-5.83 23.251 0 43.45 13.083 53.644 32.295a41.91 41.91 0 0 1 13.047-2.069c23.181 0 41.974 18.807 41.974 42.007s-18.793 42.007-41.974 42.007c-2.706 0-5.352-.257-7.915-.746h-28.646c-8.658 4.964-18.655 7.854-29.315 7.995V291h-231.821v-.002c-12.912-.156-23.331-10.68-23.331-23.64 0-13.058 10.576-23.643 23.624-23.643.718 0 1.428.032 2.13.095a54.57 54.57 0 0 1-.425-6.81c0-29.823 24.158-54 53.959-54z"/></g><g><path fill="#fff" d="M975.592 329.92c0 1.564-.098 3.105-.288 4.617a16.21 16.21 0 0 1 1.444-.064c8.846 0 16.017 7.177 16.017 16.03 0 8.68-6.895 15.749-15.504 16.02l.003.008H820.096l-.008-.066a46.106 46.106 0 0 1-19.292-5.358h-20.314a28.587 28.587 0 0 1-5.366.506c-15.717 0-28.458-12.75-28.458-28.48 0-15.728 12.741-28.48 28.458-28.48 1.222 0 2.427.078 3.61.228 6.294-18.173 23.55-31.221 43.85-31.221a46.212 46.212 0 0 1 18.584 3.874c7.205-16.357 23.548-27.775 42.557-27.775 25.04 0 45.455 19.813 46.448 44.628a36.637 36.637 0 0 1 8.844-1.077c20.204 0 36.583 16.39 36.583 36.61z"/></g><g><path fill="#fff" d="M754.214 453.33c0 1.24-.078 2.461-.229 3.66.377-.033.76-.05 1.146-.05 7.015 0 12.702 5.69 12.702 12.711 0 6.885-5.469 12.49-12.295 12.706l.002.006H630.898l-.007-.052a36.564 36.564 0 0 1-15.3-4.25h-16.11c-1.378.264-2.8.402-4.255.402-12.464 0-22.568-10.112-22.568-22.586 0-12.474 10.104-22.586 22.568-22.586.97 0 1.925.062 2.862.18 4.992-14.412 18.677-24.76 34.777-24.76 5.24 0 10.225 1.097 14.737 3.073 5.714-12.972 18.676-22.027 33.75-22.027 19.858 0 36.048 15.713 36.836 35.392a29.055 29.055 0 0 1 7.014-.854c16.023 0 29.012 12.999 29.012 29.034z"/></g><g><path fill="#fff" d="M1813.213 444.33c0 1.24-.077 2.461-.228 3.66.377-.033.76-.05 1.146-.05 7.015 0 12.701 5.69 12.701 12.711 0 6.885-5.468 12.49-12.294 12.706l.002.006h-124.642l-.087-.673a41.965 41.965 0 0 1-11.047-3.628h-17.007c-1.471.263-2.986.4-4.533.4-14.12 0-25.566-11.455-25.566-25.585 0-14.063 11.335-25.475 25.36-25.586 5.405-17.148 21.424-29.582 40.344-29.582a42.073 42.073 0 0 1 22.639 6.567c6.077-5.598 14.19-9.017 23.1-9.017 17.423 0 31.795 13.07 33.862 29.947a29.043 29.043 0 0 1 7.239-.911c16.023 0 29.011 12.999 29.011 29.034z"/></g></g></g></g></svg>