<svg xmlns="http://www.w3.org/2000/svg" width="21" height="14" viewBox="0 0 21 14"><g><g><g><path fill="#ff4e91" d="M10.462.6c5.563 0 10.072 3.003 10.072 6.707 0 3.704-4.51 6.707-10.072 6.707C4.899 14.014.39 11.011.39 7.307.39 3.603 4.9.6 10.462.6zM4.687 7.307c0 1.906.862 3.451 1.925 3.451 1.063 0 1.925-1.545 1.925-3.45 0-1.907-.862-3.452-1.925-3.452-1.063 0-1.925 1.545-1.925 3.451zm6.738 0c0 1.906.862 3.451 1.925 3.451 1.063 0 1.925-1.545 1.925-3.45 0-1.907-.862-3.452-1.925-3.452-1.063 0-1.925 1.545-1.925 3.451z"/></g></g></g></svg>