<svg xmlns="http://www.w3.org/2000/svg" width="22" height="13" viewBox="0 0 22 13"><g><g><g><path fill="#ff4e91" d="M10.974.09c5.076 0 10.995 6.835 10.995 6.835S16.555 13 10.974 13C4.886 13-.021 6.925-.021 6.925S5.139.091 10.974.091zM4.437 6.77s2.917 3.611 6.535 3.611c3.318 0 6.535-3.61 6.535-3.61s-3.518-4.063-6.535-4.063c-3.468 0-6.535 4.063-6.535 4.063zm6.204-2.997a2.742 2.742 0 0 1 2.74 2.744 2.742 2.742 0 0 1-2.74 2.744 2.742 2.742 0 0 1-2.74-2.744 2.742 2.742 0 0 1 2.74-2.744z"/></g></g></g></svg>