<svg xmlns="http://www.w3.org/2000/svg" width="73" height="69" viewBox="0 0 73 69"><g><g><g><path fill="#feeef2" d="M45.53 2.015C63.75 7.493 80.063 27.071 68.2 47.23c-9.65 16.397-26.362 26.6-43.757 18.891C7.047 58.412-6.736 37.764 5.207 19.315 15.547 3.344 30.536-2.493 45.53 2.015z"/></g><g><path fill="#ff4e91" d="M13.742 44.32s-.483-12.51 6-23c6.683-4.122 10-4 10-4v1.5s-5.75 1.356-8 4c4.422-1.71 8.317-3.5 14.5-3.5 6.179 0 9.571 1.79 13.99 3.5-2.248-2.644-7.994-4-7.994-4v-1.5s3.314-.122 9.993 4c6.478 10.49 5.996 23 5.996 23-5.896 5.967-13.49 6-13.49 6s-.584-1.355-1-3c3.514-1.11 5.978-2.589 7.994-5.5-6.745 5.956-15.489 5-15.489 5s-9.25.956-16-5c1.85 2.911 4.483 4.39 8 5.5-.417 1.645-1 3-1 3s-7.6-.033-13.5-6zm11.9-8.467c0 2.393 1.617 4.333 3.61 4.333 1.995 0 3.611-1.94 3.611-4.333 0-2.393-1.616-4.333-3.61-4.333-1.994 0-3.61 1.94-3.61 4.333zm13.5 0c0 2.393 1.617 4.333 3.61 4.333 1.995 0 3.611-1.94 3.611-4.333 0-2.393-1.616-4.333-3.61-4.333-1.994 0-3.61 1.94-3.61 4.333z"/></g></g></g></svg>