<svg xmlns="http://www.w3.org/2000/svg" width="69" height="72" viewBox="0 0 69 72"><g><g><g><path fill="#feeef2" d="M10.48 13.622C24.805 1.18 47.7-6.914 60.804 12.418c10.66 15.725 10.367 36.764-3.96 49.205-14.327 12.441-36.39 14.523-47.922-4.152-9.984-16.167-12.77-31.408 1.556-43.85z"/></g><g><path fill="#ff4e91" d="M17.21 49.023s11.572 6.952 22.5 1c10.93-5.951 10.406-12.715 11.5-21 2.93-2.285 4.5-4.5 4.5-4.5l-5.5 1.5 4.5-4.5-5.5 2.5s-3.669-5.346-10-2c-5.158 2.727-3 9.5-3 9.5s-5.595-1.215-9-3c-3.404-1.785-8-6-8-6s-2.595 5.452 2.5 10.5c-3.57-1.285-3-.5-3-.5s-1.261 4.452 6 7.5c-3.737.215-3.5 0-3.5 0s.739 4.619 7 5.5c-1.541 1.698-4.666 2.834-11 3.5z"/></g></g></g></svg>