<svg xmlns="http://www.w3.org/2000/svg" width="70" height="69" viewBox="0 0 70 69"><g><g><g><path fill="#feeef2" d="M30.103.762c18.936 0 41.526 8.917 38.86 32.153-2.17 18.901-11.542 35.981-30.479 35.981-18.936 0-41.526-14.275-38.097-35.98C3.355 14.123 11.167.761 30.103.761z"/></g><g><path fill="#ff4e91" d="M22.275 39.414l-9.973-3.5s-1.216-.278-.997-1.5c.218-1.222 37.897-15 37.897-15s3.106-1.111 2.493 2c-.612 3.111-6.482 30.5-6.482 30.5s-1.05 2.056-3.99 0c-2.939-2.056-8.476-6.5-8.476-6.5l-4.488 4.5s-1.549 1.722-1.496-.5c.052-2.222.498-8 .498-8l16.955-15s.778-1.778-1.496-.5c-2.275 1.278-20.445 13.5-20.445 13.5z"/></g></g></g></svg>